# OBJ File Exported By Crafty (c) 2006 Ryan Gregg
# http://nemesis.thewavelength.net/

mtllib Ammo_Jackhammer.mtl

v -4.001250 16.922926 -7.433550
v 7.335000 16.922926 -4.099800
v 4.001250 16.922926 7.444575
v -7.335000 16.922926 4.110825
v -4.001250 16.922926 -7.433550
v -4.001250 1.130625 -7.433550
v -4.001250 1.130625 -7.433550
v 4.001250 16.922926 -7.433550
v -4.001250 16.922926 -7.433550
v 4.001250 1.130625 -7.433550
v 4.001250 1.130625 -7.433550
v 4.001250 16.922926 -7.433550
v 7.335000 1.130625 -4.099800
v 7.335000 16.922926 -4.099800
v 7.335000 1.130625 4.110825
v 4.001250 16.922926 7.444575
v 7.335000 16.922926 4.110825
v 4.001250 1.130625 7.444575
v 4.001250 1.130625 7.444575
v -4.001250 16.922926 7.444575
v -4.001250 1.130625 7.444575
v 4.001250 16.922926 7.444575
v -4.001250 1.130625 7.444575
v -7.335000 16.922926 -4.099800
v -7.335000 1.130625 -4.099800
v -7.335000 16.922926 4.110825
v -4.001250 16.922926 7.444575
v -7.335000 1.130625 4.110825
v -4.001250 1.130625 -7.433550
v 4.001250 1.130625 -7.433550
v 7.335000 1.130625 -4.099800
v 7.335000 1.130625 4.110825
v 4.001250 1.130625 7.444575
v 4.001250 18.047926 0.000000
v 4.001250 18.047926 4.110825
v 0.000000 18.047926 0.000000
v -7.335000 16.922926 -4.099800
v -4.001250 18.047926 -4.099800
v 4.001250 16.922926 -7.433550
v 4.001250 18.047926 -4.099800
v 0.000000 18.047926 -4.099800
v 7.335000 16.922926 4.110825
v -4.001250 0.005625 -4.099800
v -7.335000 1.130625 -4.099800
v 4.001250 0.005625 -4.099800
v -4.001250 18.047926 0.000000
v -4.001250 16.922926 7.444575
v 4.001250 0.005625 4.110825
v 0.000000 18.047926 4.110825
v -4.001250 18.047926 4.110825
v -4.001250 0.005625 4.110825
v -4.001250 1.130625 7.444575
v -7.335000 1.130625 4.110825
vn -0.106995 0.942065 -0.317907
vn 0.317907 0.942065 -0.106995
vn 0.106995 0.942065 0.317908
vn -0.317907 0.942065 0.106995
vn -0.707107 0.000000 -0.707107
vn -0.707107 0.000000 -0.707107
vn 0.000000 0.000000 -1.000000
vn 0.000000 0.000000 -1.000000
vn 0.000000 0.000000 -1.000000
vn 0.000000 0.000000 -1.000000
vn 0.707107 0.000000 -0.707107
vn 0.707107 0.000000 -0.707107
vn 0.923880 0.000000 -0.382683
vn 0.923880 0.000000 -0.382683
vn 0.923880 0.000000 0.382684
vn 0.707107 0.000000 0.707107
vn 0.923879 0.000000 0.382684
vn 0.707107 0.000000 0.707107
vn 0.000000 0.000000 1.000000
vn 0.000000 0.000000 1.000000
vn 0.000000 0.000000 1.000000
vn 0.000000 0.000000 1.000000
vn -0.707107 0.000000 0.707107
vn -0.923880 0.000000 -0.382683
vn -0.923880 0.000000 -0.382683
vn -0.923880 0.000000 0.382684
vn -0.707107 0.000000 0.707107
vn -0.923880 0.000000 0.382684
vn -0.106995 -0.942065 -0.317907
vn 0.106995 -0.942065 -0.317907
vn 0.317907 -0.942065 -0.106995
vn 0.317907 -0.942065 0.106995
vn 0.106995 -0.942065 0.317907
vn 0.162012 0.986789 0.000000
vn 0.157606 0.974844 0.157606
vn 0.000000 1.000000 0.000000
vn -0.317907 0.942065 -0.106995
vn -0.157606 0.974844 -0.157606
vn 0.106995 0.942065 -0.317907
vn 0.157606 0.974844 -0.157606
vn 0.000000 0.986789 -0.162012
vn 0.317907 0.942065 0.106995
vn -0.157606 -0.974844 -0.157606
vn -0.317907 -0.942065 -0.106996
vn 0.157606 -0.974844 -0.157606
vn -0.162012 0.986789 0.000000
vn -0.106995 0.942065 0.317907
vn 0.157606 -0.974844 0.157606
vn 0.000000 0.986789 0.162012
vn -0.157606 0.974844 0.157606
vn -0.157606 -0.974844 0.157606
vn -0.106995 -0.942065 0.317908
vn -0.317907 -0.942065 0.106995
vt 0.000500 0.772478
vt 0.224346 0.000500
vt 0.999500 0.227522
vt 0.775654 0.999500
vt 0.999500 0.937209
vt 0.999500 0.062791
vt 0.227522 0.062791
vt 0.772478 0.937209
vt 0.227522 0.937209
vt 0.772478 0.062791
vt 0.000499 0.062791
vt 0.000499 0.937209
vt 0.224346 0.062791
vt 0.224346 0.937209
vt 0.775654 0.062791
vt 0.999500 0.937209
vt 0.775654 0.937209
vt 0.999500 0.062791
vt 0.227522 0.062791
vt 0.772478 0.937209
vt 0.772478 0.062791
vt 0.227522 0.937209
vt 0.000500 0.062791
vt 0.775653 0.937209
vt 0.775654 0.062791
vt 0.224346 0.937209
vt 0.000499 0.937209
vt 0.224346 0.062791
vt 0.999500 0.772478
vt 0.999501 0.227522
vt 0.775654 0.000500
vt 0.224346 0.000499
vt 0.000500 0.227522
vt 0.499631 0.227522
vt 0.775654 0.227522
vt 0.499631 0.500000
vt 0.224346 0.999501
vt 0.224346 0.772478
vt 0.000499 0.227522
vt 0.224346 0.227522
vt 0.224346 0.500000
vt 0.775654 0.000499
vt 0.775653 0.772478
vt 0.775654 0.999501
vt 0.775654 0.227522
vt 0.499631 0.772478
vt 0.999501 0.772478
vt 0.224346 0.227522
vt 0.775654 0.500000
vt 0.775654 0.772478
vt 0.224346 0.772478
vt 0.000500 0.772478
vt 0.224346 0.999500
g ammo_jackhammer.ammo_jackhammer.smd.mesh_0
usemtl material_0
f 21/21/21 22/22/22 20/20/20
f 19/19/19 22/22/22 21/21/21
f 10/10/10 9/9/9 8/8/8
f 7/7/7 9/9/9 10/10/10
f 46/46/46 50/50/50 36/36/36
f 36/36/36 34/34/34 40/40/40
f 50/50/50 49/49/49 36/36/36
f 47/47/47 49/49/49 50/50/50
f 47/47/47 50/50/50 4/4/4
f 4/4/4 50/50/50 37/37/37
f 37/37/37 50/50/50 46/46/46
f 37/37/37 46/46/46 38/38/38
f 38/38/38 46/46/46 36/36/36
f 38/38/38 36/36/36 41/41/41
f 41/41/41 36/36/36 40/40/40
f 39/39/39 41/41/41 40/40/40
f 39/39/39 40/40/40 2/2/2
f 2/2/2 40/40/40 42/42/42
f 42/42/42 40/40/40 34/34/34
f 42/42/42 34/34/34 35/35/35
f 34/34/34 36/36/36 35/35/35
f 36/36/36 49/49/49 35/35/35
f 47/47/47 35/35/35 49/49/49
f 3/3/3 35/35/35 47/47/47
f 42/42/42 35/35/35 3/3/3
f 39/39/39 38/38/38 41/41/41
f 1/1/1 38/38/38 39/39/39
f 37/37/37 38/38/38 1/1/1
f 45/45/45 30/30/30 31/31/31
f 45/45/45 29/29/29 30/30/30
f 43/43/43 29/29/29 45/45/45
f 43/43/43 44/44/44 29/29/29
f 43/43/43 53/53/53 44/44/44
f 51/51/51 53/53/53 43/43/43
f 51/51/51 52/52/52 53/53/53
f 51/51/51 33/33/33 52/52/52
f 48/48/48 33/33/33 51/51/51
f 48/48/48 32/32/32 33/33/33
f 48/48/48 31/31/31 32/32/32
f 45/45/45 31/31/31 48/48/48
f 48/48/48 51/51/51 45/45/45
f 45/45/45 51/51/51 43/43/43
f 18/18/18 17/17/17 16/16/16
f 15/15/15 17/17/17 18/18/18
f 15/15/15 14/14/14 17/17/17
f 13/13/13 14/14/14 15/15/15
f 13/13/13 12/12/12 14/14/14
f 11/11/11 12/12/12 13/13/13
f 6/6/6 24/24/24 5/5/5
f 25/25/25 24/24/24 6/6/6
f 25/25/25 26/26/26 24/24/24
f 28/28/28 26/26/26 25/25/25
f 28/28/28 27/27/27 26/26/26
f 23/23/23 27/27/27 28/28/28
