# OBJ File Exported By Crafty (c) 2006 Ryan Gregg
# http://nemesis.thewavelength.net/

mtllib Grenade.mtl

v -2.122700 5.146400 1.079800
v -2.022000 5.240400 0.962600
v -2.022000 5.284950 1.137900
v -2.356650 5.802150 0.819950
v -2.510900 5.798050 0.914300
v -2.356650 5.846650 0.995250
v -2.376050 6.539100 0.726100
v -2.240450 6.485450 0.833000
v -2.240450 6.440950 0.657700
v -1.727750 6.902400 0.727100
v -1.781300 7.022800 0.603250
v -1.727750 6.857900 0.551850
v -1.058500 6.902400 0.727100
v -1.004950 7.022800 0.603250
v -1.058500 6.857900 0.551850
v -0.545850 6.440950 0.657700
v -0.410200 6.539100 0.726100
v -0.545850 6.485450 0.833000
v -1.393150 5.063050 1.194250
v -1.393150 5.018550 1.018950
v -1.393150 4.889000 1.145150
v -0.275400 5.798050 0.914300
v -0.429650 5.802150 0.819950
v -0.429650 5.846650 0.995250
v -0.663600 5.146400 1.079800
v -0.764250 5.240400 0.962600
v -0.764250 5.284950 1.137900
v -1.376100 4.952350 1.034350
v -1.312900 4.931800 1.034350
v -1.337050 5.006100 1.034350
v -1.415200 5.006100 1.034350
v -1.439300 4.931800 1.034350
v -1.376100 4.885900 1.034350
v -1.376100 4.885900 -0.791500
v -1.312900 4.931800 -0.791500
v -1.337050 5.006100 -0.791500
v -1.415200 5.006100 -0.791500
v -1.439300 4.931800 -0.791500
v -1.376100 4.952350 -0.791500
v -2.617700 5.150800 0.757350
v -2.617700 5.150800 -0.757350
v -1.394250 5.861600 -0.757350
v -1.394250 5.861600 0.757350
v -1.672850 5.915050 0.757350
v -1.672850 5.915050 -0.757350
v -2.339100 5.097350 0.757350
v -2.339100 5.097350 -0.757350
v -2.898400 3.933600 0.757350
v -3.177000 3.987000 0.757350
v -4.031600 1.016000 2.037150
v -2.898400 3.933600 -0.757350
v -4.031600 1.016000 0.522400
v -3.177000 3.987000 -0.757350
v -3.753000 0.962600 2.037150
v -3.753000 0.962600 0.522400
v -2.342400 3.933600 -0.757350
v -2.342400 3.933600 0.757350
v -1.872450 5.062450 -0.757350
v -1.872450 5.062450 0.757350
v 0.357000 5.364000 0.757350
v 2.212800 5.860650 -0.757350
v 2.209250 5.364000 0.757350
v 2.212800 5.860650 0.757350
v 2.212800 5.860650 0.757350
v 2.209250 5.364000 0.757350
v -1.250700 5.861600 0.757350
v 2.212800 5.860650 -0.757350
v 2.212800 5.860650 0.757350
v -1.250700 5.861600 -0.757350
v -1.250700 5.861600 0.757350
v -1.250700 5.861600 -0.757350
v 2.209250 5.364000 -0.757350
v 2.212800 5.860650 -0.757350
v -2.342400 3.933600 -0.757350
v 0.357000 5.364000 0.757350
v -2.342400 3.933600 0.757350
v -1.872450 5.062450 -0.757350
v 0.719150 3.933300 0.000000
v 0.357000 5.364000 -0.757350
v -1.872450 5.062450 0.757350
v 0.361700 3.933300 0.739450
v 0.357000 5.364000 -0.757350
v 0.718850 5.364000 0.000000
v 2.209250 5.364000 -0.757350
v 0.718850 5.364000 0.000000
v 0.361700 3.933300 -0.739450
v -2.342400 3.933600 -0.757350
v 0.361700 3.933300 -0.739450
v 0.361700 3.933300 0.739450
v -0.811550 3.933600 0.378700
v -0.817550 3.933300 -0.350750
v -0.458350 -5.861600 1.536550
v -2.342400 3.933600 0.757350
v -1.527650 -5.861600 0.683850
v 0.875000 -5.861600 1.232250
v -0.458350 -5.861600 -1.536550
v -1.527650 -5.861600 -0.683850
v 1.468450 -5.861600 0.000000
v 0.875000 -5.861600 -1.232250
v 0.875000 -5.861600 1.232250
v -0.458350 -5.861600 1.536550
v -1.527650 -5.861600 -0.683850
v -2.267450 -4.902950 -1.027250
v -1.527650 -5.861600 0.683850
v -1.527650 -5.861600 -0.683850
v 1.468450 -5.861600 0.000000
v 0.875000 -5.861600 -1.232250
v -0.458350 -5.861600 -1.536550
v 1.341700 -4.902950 1.851000
v -2.267450 -4.902950 1.027250
v -0.661250 -4.902950 2.308150
v -2.267450 -4.902950 1.027250
v -2.267450 -4.902950 -1.027250
v 1.341700 -4.902950 -1.851000
v 2.233100 -4.902950 0.000000
v -0.661250 -4.902950 -2.308150
v 1.946700 -1.393250 2.651650
v -3.223650 -1.393250 1.471550
v -0.922650 -1.393250 3.306550
v -3.223650 -1.393250 1.471550
v -3.223650 -1.393250 -1.471550
v -0.922650 -1.393250 -3.306550
v 1.946700 -1.393250 -2.651650
v 3.223650 -1.393250 0.000000
v 0.361700 3.933300 0.739450
v -0.269100 3.933300 0.750600
v 1.587100 1.292900 2.167650
v -0.811550 3.933600 0.378700
v -0.817550 3.933300 -0.350750
v -0.758450 1.292900 2.703000
v -2.639450 1.292900 1.202950
v -0.817550 3.933300 -0.350750
v -2.639450 1.292900 1.202950
v -2.639450 1.292900 -1.202950
v -0.269100 3.933300 -0.750600
v -0.758450 1.292900 -2.703000
v 2.631000 1.292900 0.000000
v 1.587100 1.292900 -2.167650
v 0.361700 3.933300 -0.739450
v 0.719150 3.933300 0.000000
vn -0.642788 -0.742474 0.188565
vn 0.211439 0.011775 -0.977320
vn 0.211440 0.476686 0.853267
vn 0.323944 -0.177093 -0.929354
vn -0.984808 -0.168305 0.042744
vn 0.323944 0.287818 0.901233
vn -0.866025 0.484616 -0.123077
vn 0.284871 0.073045 0.955779
vn 0.284872 -0.391866 -0.874808
vn 0.112503 -0.067135 0.991381
vn -0.342020 0.910779 -0.231309
vn 0.112505 -0.532049 -0.839206
vn -0.112505 -0.067139 0.991380
vn 0.342020 0.910779 -0.231308
vn -0.112504 -0.532048 -0.839207
vn -0.284873 -0.391865 -0.874808
vn 0.866025 0.484616 -0.123077
vn -0.284870 0.073046 0.955779
vn 0.000000 0.551275 0.834323
vn 0.000000 0.086365 -0.996264
vn 0.000000 -0.969231 0.246153
vn 0.984808 -0.168306 0.042744
vn -0.323944 -0.177092 -0.929354
vn -0.323944 0.287818 0.901233
vn 0.642788 -0.742474 0.188565
vn -0.211439 0.011775 -0.977320
vn -0.211440 0.476686 0.853267
vn 0.000000 0.000000 1.000000
vn 0.763900 -0.248206 0.595694
vn 0.472115 0.649812 0.595694
vn -0.472116 0.649812 0.595694
vn -0.763900 -0.248206 0.595694
vn 0.000000 -0.803211 0.595694
vn 0.000000 -0.803211 -0.595694
vn 0.763899 -0.248206 -0.595694
vn 0.472116 0.649812 -0.595694
vn -0.472116 0.649811 -0.595694
vn -0.763899 -0.248207 -0.595694
vn 0.000000 0.000000 -1.000000
vn -0.588565 0.465665 0.660869
vn -0.588565 0.465664 -0.660869
vn 0.164778 0.859228 -0.484330
vn 0.164778 0.859228 0.484329
vn -0.189885 0.758453 0.623452
vn -0.189885 0.758453 -0.623452
vn 0.000000 0.000000 1.000000
vn 0.000001 -0.000001 -1.000000
vn 0.033048 0.172330 0.984485
vn -0.684741 0.397300 0.610969
vn -0.655403 -0.325722 0.681434
vn -0.033048 -0.172330 -0.984485
vn -0.740464 -0.504567 -0.443988
vn -0.681383 0.097680 -0.725380
vn -0.098372 -0.512959 0.852758
vn -0.154834 -0.807369 -0.569370
vn -0.923201 0.384318 0.000000
vn -0.923201 0.384318 0.000000
vn -0.863900 0.503664 0.000000
vn -0.863900 0.503664 0.000000
vn 0.000000 -1.000000 0.000000
vn 0.999974 -0.007193 0.000000
vn 0.704559 -0.709645 0.000000
vn 0.999974 -0.007193 0.000000
vn 0.000000 0.000000 1.000000
vn 0.000000 0.000000 1.000000
vn 0.000000 0.000000 1.000000
vn 0.000271 1.000000 0.000000
vn 0.000271 1.000000 0.000000
vn -0.439159 0.898409 0.000000
vn -0.439159 0.898409 0.000000
vn 0.000000 0.000000 -1.000000
vn 0.000000 0.000000 -1.000000
vn 0.000000 0.000000 -1.000000
vn 0.006618 -0.002755 -0.999974
vn 0.252910 -0.003911 0.967482
vn 0.006618 -0.002755 0.999974
vn 0.003801 -0.004055 -0.999985
vn 1.000000 0.000226 0.000000
vn 0.000000 -1.000000 0.000000
vn 0.003801 -0.004055 0.999985
vn 0.536102 -0.006035 0.844132
vn 0.252910 -0.003912 -0.967482
vn 0.999999 -0.001723 0.000000
vn 0.704559 -0.709645 0.000000
vn 0.000000 -1.000000 0.000000
vn 0.536102 -0.006036 -0.844132
vn -0.000163 -1.000000 -0.000048
vn -0.000097 -1.000000 -0.000295
vn -0.000102 -1.000000 -0.000413
vn -0.000023 -1.000000 -0.000093
vn -0.000073 -1.000000 -0.000093
vn 0.000000 -1.000000 0.000000
vn -0.000099 -1.000000 0.000028
vn 0.000000 -1.000000 0.000000
vn 0.000000 -1.000000 0.000000
vn 0.000000 -1.000000 0.000000
vn 0.000000 -1.000000 0.000000
vn 0.000000 -1.000000 0.000000
vn 0.000000 -1.000000 0.000000
vn 0.488802 -0.628470 0.605060
vn -0.165222 -0.639358 0.750948
vn -0.791675 -0.610942 0.000000
vn -0.791675 -0.610942 0.000000
vn -0.685112 -0.647936 0.332867
vn -0.496113 -0.605686 -0.622106
vn 0.781777 -0.623558 0.000000
vn 0.488802 -0.628470 -0.605060
vn -0.165222 -0.639358 -0.750948
vn 0.559919 -0.439687 0.702258
vn -0.680475 -0.508924 0.527210
vn -0.198937 -0.448572 0.871325
vn -0.964833 -0.262863 0.000000
vn -0.777698 -0.392344 -0.491174
vn 0.559919 -0.439687 -0.702258
vn 0.900111 -0.435661 0.000000
vn -0.198937 -0.448572 -0.871325
vn 0.621818 -0.027066 0.782694
vn -0.623310 -0.024034 0.781606
vn -0.224673 -0.026805 0.974066
vn -0.999714 -0.023894 0.000000
vn -0.901090 -0.026596 -0.432816
vn -0.224672 -0.026805 -0.974066
vn 0.621818 -0.027066 -0.782694
vn 0.999631 -0.027183 0.000000
vn 0.415108 0.574041 0.705806
vn -0.199830 0.574196 0.793957
vn 0.572387 0.394399 0.718904
vn -0.697383 0.615594 0.367017
vn -0.821259 0.570519 0.006526
vn -0.201873 0.402768 0.892763
vn -0.606522 0.388606 0.693626
vn -0.617573 0.592921 -0.516768
vn -0.932235 0.361853 0.000000
vn -0.821700 0.409130 -0.396764
vn -0.256833 0.598306 -0.758991
vn -0.207109 0.399112 -0.893205
vn 0.920866 0.389879 0.000035
vn 0.576841 0.388420 -0.718599
vn 0.441067 0.613193 -0.655328
vn 0.809795 0.586713 0.000332
vt 0.569023 0.341938
vt 0.566311 0.338655
vt 0.566311 0.338655
vt 0.575327 0.322797
vt 0.579483 0.323541
vt 0.575327 0.322797
vt 0.575850 0.302621
vt 0.572196 0.304764
vt 0.572196 0.304764
vt 0.558382 0.292994
vt 0.559825 0.288967
vt 0.558382 0.292994
vt 0.540348 0.292994
vt 0.538905 0.288967
vt 0.540348 0.292994
vt 0.526534 0.304764
vt 0.522879 0.302621
vt 0.526534 0.304764
vt 0.549365 0.344918
vt 0.549365 0.344918
vt 0.549365 0.349203
vt 0.519247 0.323541
vt 0.523403 0.322797
vt 0.523403 0.322797
vt 0.529707 0.341938
vt 0.532419 0.338655
vt 0.532419 0.338655
vt -0.387606 0.084320
vt -0.383227 0.104135
vt -0.399068 0.096566
vt -0.399068 0.072073
vt -0.383227 0.064505
vt -0.373437 0.084320
vt -0.373437 0.084320
vt -0.383227 0.104135
vt -0.399068 0.096566
vt -0.399068 0.072073
vt -0.383227 0.064505
vt -0.387606 0.084320
vt 0.801842 0.349548
vt 0.801842 0.650451
vt 0.877760 0.650451
vt 0.877760 0.349548
vt 0.877760 0.349548
vt 0.877760 0.650451
vt 0.801842 0.349548
vt 0.801842 0.650451
vt 0.708336 0.349548
vt 0.708336 0.349548
vt 0.464351 0.349548
vt 0.708336 0.650451
vt 0.464351 0.650452
vt 0.708336 0.650451
vt 0.464351 0.349548
vt 0.464351 0.650452
vt 0.858854 0.736438
vt 0.995390 0.736438
vt 0.858854 0.794868
vt 0.995390 0.794868
vt 0.996815 0.741721
vt 0.849106 0.934190
vt 0.996815 0.867267
vt 0.996815 0.934190
vt 0.996566 0.996772
vt 0.996087 0.930264
vt 0.532787 0.996898
vt 0.858854 0.865547
vt 0.995390 0.865547
vt 0.858854 0.821293
vt 0.995390 0.821293
vt 0.532787 0.996898
vt 0.996087 0.930264
vt 0.996566 0.996772
vt 0.386605 0.738729
vt 0.748063 0.930264
vt 0.386605 0.738729
vt 0.471339 0.889889
vt 0.841745 0.738729
vt 0.849106 0.741721
vt 0.471339 0.889889
vt 0.748120 0.738729
vt 0.748063 0.930264
vt 0.841688 0.930264
vt 0.849106 0.867267
vt 0.922961 0.766004
vt 0.748120 0.738729
vt 0.669087 0.996751
vt 0.835754 0.996751
vt 0.835754 0.933389
vt 0.763590 0.949230
vt 0.763590 0.980910
vt 0.255333 0.832787
vt 0.669087 0.933389
vt 0.186173 0.743833
vt 0.230650 0.943710
vt 0.006089 0.832787
vt 0.075249 0.743833
vt 0.130711 0.993076
vt 0.030772 0.943710
vt 0.586052 0.004285
vt 0.730627 0.004285
vt 0.998875 0.004285
vt 0.999827 0.052284
vt 0.866402 0.004285
vt -0.001125 0.004285
vt 0.432639 0.004285
vt 0.279226 0.004285
vt 0.134651 0.004285
vt 0.583920 0.052284
vt 0.865451 0.052284
vt 0.728285 0.052284
vt -0.134549 0.052284
vt -0.000173 0.052284
vt 0.281357 0.052284
vt 0.432639 0.052284
vt 0.136993 0.052284
vt 0.582614 0.228003
vt 0.864845 0.228003
vt 0.726817 0.228003
vt -0.135155 0.228003
vt 0.000433 0.228003
vt 0.138461 0.228003
vt 0.282664 0.228003
vt 0.432639 0.228003
vt 0.613662 0.494690
vt 0.741062 0.494690
vt 0.582989 0.362493
vt 0.869487 0.494690
vt 0.995791 0.494690
vt 0.727241 0.362493
vt 0.865021 0.362493
vt -0.004209 0.494690
vt -0.134979 0.362493
vt 0.000257 0.362493
vt 0.124216 0.494690
vt 0.138037 0.362493
vt 0.432639 0.362493
vt 0.282288 0.362493
vt 0.251616 0.494690
vt 0.432639 0.494690
g grenade.grenade.smd.mesh_0
usemtl material_0
f 84/84/84 85/85/85 79/79/79
f 60/60/60 85/85/85 62/62/62
f 84/84/84 62/62/62 85/85/85
f 62/62/62 84/84/84 63/63/63
f 61/61/61 63/63/63 84/84/84
f 101/101/101 100/100/100 111/111/111
f 110/110/110 101/101/101 111/111/111
f 104/104/104 101/101/101 110/110/110
f 103/103/103 104/104/104 110/110/110
f 102/102/102 104/104/104 103/103/103
f 110/110/110 111/111/111 118/118/118
f 100/100/100 106/106/106 109/109/109
f 111/111/111 100/100/100 109/109/109
f 111/111/111 109/109/109 119/119/119
f 118/118/118 111/111/111 119/119/119
f 118/118/118 119/119/119 131/131/131
f 131/131/131 119/119/119 130/130/130
f 131/131/131 130/130/130 128/128/128
f 128/128/128 130/130/130 126/126/126
f 130/130/130 127/127/127 126/126/126
f 126/126/126 127/127/127 125/125/125
f 127/127/127 137/137/137 125/125/125
f 125/125/125 137/137/137 140/140/140
f 137/137/137 138/138/138 140/140/140
f 140/140/140 138/138/138 139/139/139
f 138/138/138 136/136/136 139/139/139
f 139/139/139 136/136/136 135/135/135
f 136/136/136 134/134/134 135/135/135
f 135/135/135 134/134/134 132/132/132
f 129/129/129 131/131/131 128/128/128
f 124/124/124 123/123/123 137/137/137
f 137/137/137 123/123/123 138/138/138
f 123/123/123 122/122/122 138/138/138
f 138/138/138 122/122/122 136/136/136
f 122/122/122 121/121/121 136/136/136
f 136/136/136 121/121/121 134/134/134
f 134/134/134 133/133/133 132/132/132
f 134/134/134 120/120/120 133/133/133
f 121/121/121 120/120/120 134/134/134
f 121/121/121 112/112/112 120/120/120
f 113/113/113 112/112/112 121/121/121
f 122/122/122 113/113/113 121/121/121
f 116/116/116 113/113/113 122/122/122
f 123/123/123 116/116/116 122/122/122
f 114/114/114 116/116/116 123/123/123
f 124/124/124 114/114/114 123/123/123
f 115/115/115 114/114/114 124/124/124
f 117/117/117 115/115/115 124/124/124
f 109/109/109 115/115/115 117/117/117
f 119/119/119 109/109/109 117/117/117
f 119/119/119 117/117/117 130/130/130
f 130/130/130 117/117/117 127/127/127
f 117/117/117 124/124/124 127/127/127
f 127/127/127 124/124/124 137/137/137
f 116/116/116 105/105/105 113/113/113
f 108/108/108 105/105/105 116/116/116
f 114/114/114 108/108/108 116/116/116
f 107/107/107 108/108/108 114/114/114
f 115/115/115 107/107/107 114/114/114
f 106/106/106 107/107/107 115/115/115
f 109/109/109 106/106/106 115/115/115
f 29/29/29 33/33/33 35/35/35
f 36/36/36 29/29/29 35/35/35
f 35/35/35 39/39/39 36/36/36
f 34/34/34 39/39/39 35/35/35
f 35/35/35 33/33/33 34/34/34
f 29/29/29 28/28/28 33/33/33
f 30/30/30 28/28/28 29/29/29
f 30/30/30 29/29/29 36/36/36
f 37/37/37 30/30/30 36/36/36
f 36/36/36 39/39/39 37/37/37
f 37/37/37 39/39/39 38/38/38
f 38/38/38 39/39/39 34/34/34
f 34/34/34 32/32/32 38/38/38
f 33/33/33 32/32/32 34/34/34
f 33/33/33 28/28/28 32/32/32
f 32/32/32 28/28/28 31/31/31
f 31/31/31 28/28/28 30/30/30
f 31/31/31 30/30/30 37/37/37
f 38/38/38 31/31/31 37/37/37
f 32/32/32 31/31/31 38/38/38
f 52/52/52 50/50/50 53/53/53
f 49/49/49 53/53/53 50/50/50
f 49/49/49 40/40/40 53/53/53
f 41/41/41 53/53/53 40/40/40
f 41/41/41 40/40/40 45/45/45
f 44/44/44 45/45/45 40/40/40
f 40/40/40 49/49/49 46/46/46
f 46/46/46 43/43/43 40/40/40
f 44/44/44 40/40/40 43/43/43
f 43/43/43 42/42/42 44/44/44
f 45/45/45 44/44/44 42/42/42
f 42/42/42 47/47/47 45/45/45
f 41/41/41 45/45/45 47/47/47
f 47/47/47 51/51/51 41/41/41
f 53/53/53 41/41/41 51/51/51
f 51/51/51 55/55/55 53/53/53
f 52/52/52 53/53/53 55/55/55
f 55/55/55 54/54/54 52/52/52
f 50/50/50 52/52/52 54/54/54
f 54/54/54 48/48/48 50/50/50
f 49/49/49 50/50/50 48/48/48
f 48/48/48 46/46/46 49/49/49
f 74/74/74 77/77/77 86/86/86
f 81/81/81 80/80/80 76/76/76
f 80/80/80 81/81/81 75/75/75
f 81/81/81 83/83/83 75/75/75
f 78/78/78 83/83/83 81/81/81
f 78/78/78 86/86/86 83/83/83
f 83/83/83 86/86/86 82/82/82
f 77/77/77 82/82/82 86/86/86
f 77/77/77 71/71/71 82/82/82
f 82/82/82 71/71/71 73/73/73
f 73/73/73 72/72/72 82/82/82
f 66/66/66 80/80/80 75/75/75
f 64/64/64 66/66/66 75/75/75
f 75/75/75 65/65/65 64/64/64
f 94/94/94 95/95/95 92/92/92
f 98/98/98 95/95/95 94/94/94
f 97/97/97 98/98/98 94/94/94
f 98/98/98 97/97/97 99/99/99
f 99/99/99 97/97/97 96/96/96
f 8/8/8 9/9/9 10/10/10
f 8/8/8 4/4/4 9/9/9
f 4/4/4 5/5/5 9/9/9
f 4/4/4 1/1/1 5/5/5
f 2/2/2 1/1/1 4/4/4
f 2/2/2 21/21/21 1/1/1
f 20/20/20 21/21/21 2/2/2
f 20/20/20 25/25/25 21/21/21
f 26/26/26 25/25/25 20/20/20
f 26/26/26 22/22/22 25/25/25
f 23/23/23 22/22/22 26/26/26
f 23/23/23 17/17/17 22/22/22
f 16/16/16 17/17/17 23/23/23
f 16/16/16 14/14/14 17/17/17
f 15/15/15 14/14/14 16/16/16
f 15/15/15 11/11/11 14/14/14
f 12/12/12 11/11/11 15/15/15
f 12/12/12 7/7/7 11/11/11
f 9/9/9 7/7/7 12/12/12
f 9/9/9 5/5/5 7/7/7
f 6/6/6 4/4/4 8/8/8
f 6/6/6 2/2/2 4/4/4
f 3/3/3 2/2/2 6/6/6
f 3/3/3 20/20/20 2/2/2
f 19/19/19 20/20/20 3/3/3
f 19/19/19 26/26/26 20/20/20
f 27/27/27 26/26/26 19/19/19
f 27/27/27 23/23/23 26/26/26
f 24/24/24 23/23/23 27/27/27
f 24/24/24 16/16/16 23/23/23
f 18/18/18 16/16/16 24/24/24
f 18/18/18 15/15/15 16/16/16
f 13/13/13 15/15/15 18/18/18
f 13/13/13 12/12/12 15/15/15
f 10/10/10 12/12/12 13/13/13
f 10/10/10 9/9/9 12/12/12
f 7/7/7 8/8/8 11/11/11
f 7/7/7 6/6/6 8/8/8
f 5/5/5 6/6/6 7/7/7
f 5/5/5 3/3/3 6/6/6
f 1/1/1 3/3/3 5/5/5
f 1/1/1 19/19/19 3/3/3
f 21/21/21 19/19/19 1/1/1
f 21/21/21 27/27/27 19/19/19
f 25/25/25 27/27/27 21/21/21
f 25/25/25 24/24/24 27/27/27
f 22/22/22 24/24/24 25/25/25
f 22/22/22 18/18/18 24/24/24
f 17/17/17 18/18/18 22/22/22
f 17/17/17 13/13/13 18/18/18
f 14/14/14 13/13/13 17/17/17
f 14/14/14 10/10/10 13/13/13
f 11/11/11 10/10/10 14/14/14
f 11/11/11 8/8/8 10/10/10
f 57/57/57 59/59/59 56/56/56
f 58/58/58 56/56/56 59/59/59
f 58/58/58 59/59/59 69/69/69
f 70/70/70 69/69/69 59/59/59
f 70/70/70 68/68/68 69/69/69
f 67/67/67 69/69/69 68/68/68
f 90/90/90 89/89/89 93/93/93
f 91/91/91 90/90/90 93/93/93
f 91/91/91 93/93/93 87/87/87
f 88/88/88 91/91/91 87/87/87
