# OBJ File Exported By Crafty (c) 2006 Ryan Gregg
# http://nemesis.thewavelength.net/

mtllib Lead_Pipe.mtl

v 0.721050 -2.873600 0.578200
v 0.468200 -2.873600 0.377100
v 0.460050 11.333950 0.370600
v 0.902850 -2.873600 -0.222950
v 1.792850 15.329599 1.452400
v 2.090750 15.242900 1.362800
v 0.588000 -2.873600 -0.150700
v 0.902850 -2.873600 -0.222950
v 0.588000 -2.873600 -0.150700
v 1.499000 15.582450 1.075400
v 1.644750 15.626749 0.790500
v 0.250000 -2.873600 -0.573400
v 0.389850 -2.873600 -0.864600
v 0.250000 -2.873600 -0.573400
v 0.993400 15.770949 1.112550
v 0.877150 15.912850 0.846900
v 0.993400 15.770949 1.112550
v -0.431700 -2.873600 -0.863600
v -0.291150 -2.873600 -0.572700
v 0.496300 15.565949 2.234450
v 0.366050 15.885800 1.489500
v 0.366050 15.885800 1.489500
v 0.656700 15.753150 1.535850
v -0.853900 11.619451 -0.184000
v -0.943100 -2.873600 -0.220650
v -0.628050 -2.873600 -0.149150
v -0.759300 -2.873600 0.580050
v 0.742500 15.542451 2.026600
v 0.496300 15.565949 2.234450
v -0.750200 11.503150 0.586250
v 0.742500 15.542451 2.026600
v 0.721050 -2.873600 0.578200
v -0.507000 -2.873600 0.378300
v -0.759300 -2.873600 0.580050
v -0.018700 -2.873600 0.935550
v 1.653600 15.202800 1.959650
v 1.879400 15.050400 2.132800
v 1.653600 15.202800 1.959650
v 1.169800 15.194149 2.520750
v 1.169800 15.194149 2.520750
v 1.186150 15.297500 2.215200
v 1.879400 15.050400 2.132800
v 0.460050 11.333950 0.370600
v 1.186150 15.297500 2.215200
v -0.024200 11.376750 0.608450
v -0.018700 -2.873600 0.935550
v -0.283800 11.550000 -0.566850
v 0.468200 -2.873600 0.377100
v -0.291150 -2.873600 -0.572700
v 0.721050 -2.873600 0.578200
v -0.019100 -2.873600 0.612500
v 0.708650 11.275100 0.568350
v 0.468200 -2.873600 0.377100
v -0.628050 -2.873600 -0.149150
v -0.019100 -2.873600 0.612500
v 1.879400 15.050400 2.132800
v 0.656700 15.753150 1.535850
v -0.620700 11.550000 -0.143300
v 0.895100 11.340050 -0.229100
v 0.662900 11.823450 -0.138400
v 1.499000 15.582450 1.075400
v 2.090750 15.242900 1.362800
v 0.632450 11.429800 0.507750
v 0.877150 15.912850 0.846900
v 0.395500 11.502750 -0.860150
v -0.943100 -2.873600 -0.220650
v -0.498650 11.510650 0.384950
v -0.507000 -2.873600 0.378300
v -0.932050 11.435949 -0.211850
v -0.375950 11.619451 -0.784900
v -0.420650 11.435949 -0.854800
v 0.392300 11.502500 -0.860150
v 1.792850 15.329599 1.452400
v 0.251850 11.472900 -0.571950
v -0.026400 11.340050 0.929400
v 0.632450 11.429800 0.507750
v 0.046300 11.848850 0.700800
v -0.411300 11.436700 -0.854800
v 1.644750 15.626749 0.790500
v 0.708650 11.275100 0.568350
v 0.389850 -2.873600 -0.864600
v -0.756550 11.486000 0.582250
v 0.582900 11.376750 -0.154750
v -0.431700 -2.873600 -0.863600
v 1.653600 15.202800 1.959650
vn 0.975150 0.000641 0.221543
vn -0.975204 -0.000662 -0.221305
vn -0.959392 0.189627 -0.208829
vn 0.974702 0.000291 -0.223508
vn 0.351660 0.880908 0.316758
vn 0.351660 0.880908 0.316758
vn -0.974690 -0.000421 0.223562
vn 0.000000 -1.000000 0.000000
vn 0.000000 -1.000000 0.000000
vn 0.351657 0.880911 0.316754
vn 0.351656 0.880912 0.316753
vn -0.432760 -0.000111 0.901509
vn 0.000000 -1.000000 0.000000
vn 0.000000 -1.000000 0.000000
vn 0.351647 0.880916 0.316751
vn 0.351650 0.880915 0.316751
vn 0.383088 -0.440054 0.812155
vn 0.000000 -1.000000 0.000000
vn 0.000000 -1.000000 0.000000
vn -0.797451 -0.008045 0.603330
vn -0.931344 0.327531 -0.159128
vn 0.351655 0.880911 0.316757
vn 0.351654 0.880911 0.316757
vn -0.888904 0.389019 -0.241896
vn 0.000000 -1.000000 0.000000
vn 0.000000 -1.000000 0.000000
vn -0.781053 0.000167 0.624465
vn 0.351655 0.880910 0.316759
vn 0.351656 0.880910 0.316757
vn 0.746438 -0.448713 0.491413
vn 0.792699 0.005122 -0.609592
vn 0.435006 0.001009 0.900427
vn 0.000000 -1.000000 0.000000
vn 0.000000 -1.000000 0.000000
vn 0.001518 0.000638 0.999999
vn 0.351661 0.880906 0.316762
vn 0.351662 0.880906 0.316764
vn -0.357624 0.447089 -0.819888
vn -0.075520 -0.413081 0.907558
vn 0.351654 0.880912 0.316754
vn 0.351652 0.880914 0.316752
vn 0.288264 -0.523637 0.801691
vn -0.413380 0.224753 -0.882385
vn 0.086638 0.355050 -0.930824
vn 0.062337 0.179968 -0.981695
vn 0.000000 -1.000000 0.000000
vn 0.424836 -0.222115 0.877598
vn 0.000000 -1.000000 0.000000
vn 0.435164 -0.000422 0.900351
vn 0.000000 -1.000000 0.000000
vn -0.001430 -0.000141 -0.999999
vn 0.941921 0.204612 0.266305
vn -0.435150 -0.000418 -0.900358
vn 0.975187 -0.000588 0.221382
vn 0.000000 -1.000000 0.000000
vn 0.910804 -0.382926 0.154284
vn 0.926539 -0.343682 0.152999
vn 0.951976 -0.184010 0.244707
vn 0.957717 0.209788 -0.196896
vn 0.977776 0.014775 -0.209133
vn -0.459882 -0.205285 0.863925
vn 0.933612 -0.239711 -0.266284
vn 0.953355 0.224322 0.201973
vn -0.391804 0.431616 -0.812525
vn 0.427918 0.162642 -0.889063
vn -0.975146 0.000642 -0.221564
vn 0.821602 -0.015336 -0.569856
vn 0.781167 -0.000135 -0.624322
vn -0.953242 0.196046 -0.229991
vn -0.411128 0.418115 -0.810033
vn -0.436482 0.194815 -0.878368
vn -0.051890 -0.918163 -0.392789
vn -0.950801 0.193355 0.242057
vn -0.395592 -0.115780 0.911099
vn 0.022155 0.195187 0.980516
vn 0.330655 0.173366 0.927692
vn 0.092878 -0.190336 0.977316
vn -0.018791 0.184884 -0.982581
vn 0.467042 0.173675 -0.867012
vn 0.445378 0.226603 0.866192
vn 0.432552 0.000274 -0.901609
vn -0.779826 0.100559 0.617866
vn -0.954817 0.079537 0.286355
vn -0.435113 0.000889 -0.900376
vn -0.921589 0.350310 -0.167205
vt 1.000000 0.869566
vt 1.000000 0.869566
vt 1.000000 0.189292
vt 0.850789 0.869566
vt 0.383143 0.960729
vt 0.450882 0.974446
vt 0.847342 0.869566
vt 0.951889 0.974446
vt 0.884150 0.960729
vt 0.415440 0.924796
vt 0.499909 0.919901
vt 0.702834 0.869566
vt 1.000916 0.919901
vt 0.916446 0.924796
vt 0.324946 0.895981
vt 0.362539 0.876158
vt 0.566569 0.000435
vt 0.863546 0.876158
vt 0.825953 0.895981
vt 0.293308 0.000435
vt 0.431844 0.000435
vt 0.142214 0.876158
vt 0.179806 0.895981
vt 0.431844 0.203784
vt 0.643221 0.876158
vt 0.680813 0.895981
vt 0.293308 0.869566
vt 0.089313 0.924796
vt 0.004844 0.919901
vt 0.292650 0.202922
vt 0.297166 0.000435
vt -0.000000 0.869566
vt 0.590320 0.924796
vt 0.505850 0.919901
vt 0.149211 0.869566
vt 0.252376 0.976720
vt 0.252376 0.998722
vt -0.000000 0.000435
vt 0.149211 0.000435
vt 0.053871 0.974446
vt 0.121610 0.960729
vt -0.000000 0.000435
vt -0.000000 0.189292
vt 0.152658 0.000435
vt 0.152658 0.189292
vt 0.554877 0.974446
vt 0.566569 0.189292
vt 0.753383 0.976720
vt 0.566569 0.869566
vt 0.753383 0.998722
vt 0.152658 0.869566
vt 1.000000 0.203784
vt -0.000000 0.869566
vt 0.433431 0.869566
vt 0.622617 0.960729
vt 1.000000 0.000435
vt 0.433431 0.000435
vt 0.433431 0.189292
vt 0.850789 0.203784
vt 0.834084 0.172307
vt 0.702834 0.000435
vt 0.850789 0.000435
vt 1.000000 0.195885
vt 0.568156 0.000435
vt 0.706692 0.203010
vt 0.431844 0.869566
vt 0.297166 0.187537
vt 0.297166 0.869566
vt 0.431844 0.211568
vt 0.568156 0.203784
vt 0.568156 0.211568
vt 0.706167 0.203068
vt 0.847342 0.000435
vt 0.702834 0.189292
vt 0.149211 0.203784
vt -0.000000 0.195885
vt 0.165916 0.172307
vt 0.569734 0.211533
vt 0.706692 0.000435
vt -0.000000 0.203784
vt 0.706692 0.869566
vt 0.293308 0.203784
vt 0.847342 0.189292
vt 0.568156 0.869566
vt 1.000000 0.000435
g leadpipe.leadpipe.smd.mesh_0
usemtl material_0
f 43/43/43 44/44/44 38/38/38
f 51/51/51 45/45/45 53/53/53
f 53/53/53 45/45/45 43/43/43
f 45/45/45 44/44/44 43/43/43
f 45/45/45 31/31/31 44/44/44
f 67/67/67 31/31/31 45/45/45
f 67/67/67 57/57/57 31/31/31
f 58/58/58 57/57/57 67/67/67
f 58/58/58 17/17/17 57/57/57
f 47/47/47 17/17/17 58/58/58
f 47/47/47 61/61/61 17/17/17
f 74/74/74 61/61/61 47/47/47
f 74/74/74 73/73/73 61/61/61
f 83/83/83 73/73/73 74/74/74
f 83/83/83 85/85/85 73/73/73
f 3/3/3 85/85/85 83/83/83
f 7/7/7 3/3/3 83/83/83
f 2/2/2 3/3/3 7/7/7
f 51/51/51 67/67/67 45/45/45
f 68/68/68 67/67/67 51/51/51
f 68/68/68 58/58/58 67/67/67
f 54/54/54 58/58/58 68/68/68
f 54/54/54 47/47/47 58/58/58
f 49/49/49 47/47/47 54/54/54
f 49/49/49 74/74/74 47/47/47
f 12/12/12 74/74/74 49/49/49
f 12/12/12 83/83/83 74/74/74
f 7/7/7 83/83/83 12/12/12
f 62/62/62 60/60/60 79/79/79
f 60/60/60 59/59/59 65/65/65
f 79/79/79 60/60/60 65/65/65
f 79/79/79 65/65/65 64/64/64
f 65/65/65 78/78/78 70/70/70
f 72/72/72 65/65/65 70/70/70
f 65/65/65 72/72/72 64/64/64
f 64/64/64 72/72/72 70/70/70
f 64/64/64 70/70/70 21/21/21
f 56/56/56 63/63/63 62/62/62
f 62/62/62 63/63/63 60/60/60
f 63/63/63 52/52/52 60/60/60
f 60/60/60 52/52/52 59/59/59
f 52/52/52 1/1/1 59/59/59
f 59/59/59 1/1/1 4/4/4
f 59/59/59 4/4/4 65/65/65
f 65/65/65 4/4/4 81/81/81
f 65/65/65 81/81/81 78/78/78
f 78/78/78 81/81/81 71/71/71
f 70/70/70 78/78/78 71/71/71
f 70/70/70 71/71/71 24/24/24
f 21/21/21 70/70/70 24/24/24
f 21/21/21 24/24/24 20/20/20
f 20/20/20 24/24/24 82/82/82
f 20/20/20 82/82/82 39/39/39
f 82/82/82 30/30/30 39/39/39
f 39/39/39 30/30/30 77/77/77
f 71/71/71 81/81/81 84/84/84
f 69/69/69 84/84/84 66/66/66
f 71/71/71 84/84/84 69/69/69
f 71/71/71 69/69/69 24/24/24
f 24/24/24 69/69/69 82/82/82
f 69/69/69 66/66/66 82/82/82
f 82/82/82 66/66/66 27/27/27
f 30/30/30 82/82/82 77/77/77
f 77/77/77 82/82/82 75/75/75
f 82/82/82 27/27/27 75/75/75
f 75/75/75 27/27/27 35/35/35
f 75/75/75 35/35/35 80/80/80
f 80/80/80 35/35/35 32/32/32
f 76/76/76 75/75/75 80/80/80
f 77/77/77 75/75/75 76/76/76
f 42/42/42 77/77/77 76/76/76
f 39/39/39 77/77/77 42/42/42
f 34/34/34 33/33/33 46/46/46
f 34/34/34 26/26/26 33/33/33
f 25/25/25 26/26/26 34/34/34
f 25/25/25 19/19/19 26/26/26
f 18/18/18 19/19/19 25/25/25
f 18/18/18 14/14/14 19/19/19
f 13/13/13 14/14/14 18/18/18
f 13/13/13 9/9/9 14/14/14
f 8/8/8 9/9/9 13/13/13
f 8/8/8 48/48/48 9/9/9
f 50/50/50 48/48/48 8/8/8
f 50/50/50 55/55/55 48/48/48
f 46/46/46 55/55/55 50/50/50
f 46/46/46 33/33/33 55/55/55
f 5/5/5 37/37/37 6/6/6
f 36/36/36 37/37/37 5/5/5
f 36/36/36 40/40/40 37/37/37
f 41/41/41 40/40/40 36/36/36
f 41/41/41 29/29/29 40/40/40
f 28/28/28 29/29/29 41/41/41
f 28/28/28 22/22/22 29/29/29
f 23/23/23 22/22/22 28/28/28
f 23/23/23 16/16/16 22/22/22
f 15/15/15 16/16/16 23/23/23
f 15/15/15 11/11/11 16/16/16
f 10/10/10 11/11/11 15/15/15
f 10/10/10 6/6/6 11/11/11
f 5/5/5 6/6/6 10/10/10
