# OBJ File Exported By Crafty (c) 2006 Ryan Gregg
# http://nemesis.thewavelength.net/

mtllib Ammo_Sniper.mtl

v 4.418175 9.741674 -3.776925
v 4.418175 9.741674 3.789675
v -4.156950 9.741674 3.789675
v -4.156950 9.741674 -3.776925
v -4.906950 8.991674 -3.776925
v -4.156950 8.991674 -4.526925
v 4.418175 8.991674 -4.526925
v 5.168175 8.991674 -3.776925
v 5.168175 8.991674 3.789675
v 4.418175 8.991674 4.539675
v -4.156950 8.991674 4.539675
v -4.906950 8.991674 3.789675
v -4.906950 0.753750 -3.776925
v -4.156950 0.753750 -4.526925
v 4.418175 0.753750 -4.526925
v -4.156950 0.003750 -3.776925
v 4.418175 0.003750 -3.776925
v 4.418175 0.753750 -4.526925
v 4.418175 0.003750 3.789675
v 5.168175 0.753750 3.789675
v 4.418175 0.003750 -3.776925
v 5.168175 0.753750 -3.776925
v 5.168175 0.753750 3.789675
v 4.418175 0.753750 4.539675
v -4.156950 0.753750 4.539675
v 4.418175 0.003750 3.789675
v -4.156950 0.003750 3.789675
v -4.156950 0.753750 4.539675
v -4.156950 0.003750 3.789675
v -4.156950 0.003750 -3.776925
v -4.906950 0.753750 3.789675
v -4.906950 0.753750 -3.776925
v 4.418175 0.003750 3.789675
v -4.156950 0.003750 -3.776925
v 4.418175 0.003750 -3.776925
v -4.156950 0.003750 3.789675
v -4.156950 9.741674 0.028575
v 4.418175 9.741674 3.789675
v -4.156950 9.741674 0.028575
v -4.906950 8.991674 -3.776925
v -4.156950 9.741674 3.789675
v 0.031425 9.741674 3.789675
v -4.156950 8.991674 4.539675
v 4.418175 9.741674 3.789675
v 4.418175 9.741674 0.028575
v 5.168175 8.991674 3.789675
v 4.418175 9.741674 -3.776925
v 0.031425 9.741674 -3.776925
v 4.418175 8.991674 -4.526925
v -4.156950 9.741674 -3.776925
v 0.031425 9.741674 0.028575
v -4.156950 9.741674 -3.776925
v 4.418175 9.741674 0.028575
v -4.156950 9.741674 3.789675
v 4.418175 9.741674 -3.776925
v 0.031425 9.741674 -3.776925
v 0.031425 9.741674 3.789675
v 3.668250 9.126075 -3.071325
v -3.406950 12.836025 -3.688350
v -3.406950 12.131250 -3.944850
v -3.406950 15.715950 0.555600
v 3.668250 12.836025 -3.688350
v 3.668250 15.715950 0.555600
v -3.406950 12.836025 -3.688350
v -3.406950 15.715950 0.555600
v -3.406950 16.420725 0.812100
v -3.406950 17.298676 -0.182400
v -3.406950 17.042175 0.522375
v -3.781950 9.400351 -3.370575
v -3.781950 9.813150 -3.220350
v -3.781950 9.241876 -3.710475
v -3.781950 9.392100 -4.123275
v -3.781950 12.993600 -5.860125
v -3.781950 12.113550 -4.350375
v -3.781950 13.406475 -5.709825
v -3.781950 13.110226 -3.987600
v -3.781950 16.893150 -0.164700
v -3.781950 15.990150 0.256350
v -3.781950 16.403025 0.406650
v -3.781950 16.742851 0.248100
v 4.043250 9.400351 -3.370575
v 4.043250 9.241876 -3.710475
v 4.043250 9.813150 -3.220350
v 4.043250 9.392100 -4.123275
v 4.043250 12.993600 -5.860125
v 4.043250 12.113550 -4.350375
v 4.043250 13.406475 -5.709825
v 4.043250 16.893150 -0.164700
v 4.043250 13.110226 -3.987600
v 4.043250 16.742926 0.248100
v 4.043250 16.403025 0.406575
v 4.043250 15.990150 0.256350
v -3.781950 9.400351 -3.370575
v -3.406950 9.126075 -3.071325
v -3.406950 8.836349 -3.692775
v -3.781950 9.241876 -3.710475
v -3.406950 9.126075 -3.071325
v -3.406950 9.830851 -2.814825
v -3.781950 9.813150 -3.220350
v -3.781950 9.400351 -3.370575
v -3.406950 9.830851 -2.814825
v -3.406950 12.131250 -3.944850
v -3.781950 9.813150 -3.220350
v -3.781950 13.110226 -3.987600
v -3.406950 12.836025 -3.688350
v -3.781950 12.113550 -4.350375
v -3.406950 12.836025 -3.688350
v -3.781950 15.990150 0.256350
v -3.406950 15.715950 0.555600
v -3.781950 13.110226 -3.987600
v -3.406950 15.715950 0.555600
v -3.781950 15.990150 0.256350
v -3.406950 16.420725 0.812100
v -3.781950 16.742851 0.248100
v -3.406950 17.042175 0.522375
v -3.781950 16.403025 0.406650
v -3.406950 17.042175 0.522375
v -3.406950 17.298676 -0.182400
v -3.781950 16.893150 -0.164700
v -3.781950 16.742851 0.248100
v -3.406950 17.298676 -0.182400
v -3.406950 13.680676 -6.009075
v -3.781950 13.406475 -5.709825
v -3.781950 16.893150 -0.164700
v -3.406950 13.680676 -6.009075
v -3.781950 13.406475 -5.709825
v -3.406950 12.975901 -6.265575
v -3.781950 12.993600 -5.860125
v -3.406950 9.092850 -4.397550
v -3.781950 9.241876 -3.710475
v -3.406950 8.836349 -3.692775
v -3.781950 9.392100 -4.123275
v 4.043250 9.241876 -3.710475
v 3.668250 9.126075 -3.071325
v 3.668250 8.836349 -3.692775
v 4.043250 9.400351 -3.370575
v 3.668250 9.830851 -2.814825
v 4.043250 9.400351 -3.370575
v 3.668250 9.126075 -3.071325
v 4.043250 9.813150 -3.220350
v 3.668250 9.830851 -2.814825
v 4.043250 9.813150 -3.220350
v 4.043250 13.110226 -3.987600
v 4.043250 12.113550 -4.350375
v 3.668250 12.131250 -3.944850
v 3.668250 12.836025 -3.688350
v 3.668250 15.715950 0.555600
v 4.043250 13.110226 -3.987600
v 3.668250 12.836025 -3.688350
v 4.043250 15.990150 0.256350
v 4.043250 15.990150 0.256350
v 3.668250 15.715950 0.555600
v 3.668250 16.420725 0.812100
v 4.043250 16.403025 0.406575
v 4.043250 16.893150 -0.164700
v 3.668250 17.298676 -0.182400
v 4.043250 16.742926 0.248100
v 3.668250 17.042175 0.522375
v 3.668250 17.298676 -0.182400
v 3.668250 13.680676 -6.009075
v 4.043250 16.893150 -0.164700
v 4.043250 13.406475 -5.709825
v 3.668250 13.680676 -6.009075
v 4.043250 13.406475 -5.709825
v 3.668250 12.975901 -6.265650
v 4.043250 12.993600 -5.860125
v 3.668250 9.092850 -4.397550
v 4.043250 9.392100 -4.123275
v 4.043250 9.241876 -3.710475
v 3.668250 8.836349 -3.692775
vn 0.000000 0.707107 -0.707107
vn 0.707107 0.707107 0.000000
vn 0.000000 0.707107 0.707107
vn -0.707107 0.707107 0.000000
vn -0.686118 0.241836 -0.686118
vn -0.341586 0.341586 -0.875579
vn 0.686118 0.241836 -0.686118
vn 0.875579 0.341586 -0.341586
vn 0.686118 0.241836 0.686118
vn 0.341586 0.341586 0.875579
vn -0.686118 0.241836 0.686118
vn -0.875579 0.341586 0.341586
vn -0.686118 -0.241836 -0.686118
vn -0.341586 -0.341586 -0.875579
vn 0.000000 -0.382683 -0.923880
vn -0.241836 -0.686118 -0.686118
vn 0.000000 -0.707107 -0.707107
vn 0.686118 -0.241836 -0.686118
vn 0.707107 -0.707107 0.000000
vn 0.923880 -0.382683 0.000000
vn 0.686118 -0.686118 -0.241836
vn 0.875579 -0.341586 -0.341586
vn 0.686118 -0.241836 0.686118
vn 0.341586 -0.341586 0.875579
vn 0.000000 -0.382683 0.923880
vn 0.241836 -0.686118 0.686118
vn 0.000000 -0.707107 0.707107
vn -0.686118 -0.241836 0.686118
vn -0.686118 -0.686117 0.241836
vn -0.707107 -0.707107 0.000000
vn -0.875579 -0.341586 0.341586
vn -0.923880 -0.382683 0.000000
vn 0.000000 -1.000000 0.000000
vn 0.000000 -1.000000 0.000000
vn 0.000000 -1.000000 0.000000
vn 0.000000 -1.000000 0.000000
vn 0.000000 1.000000 0.000000
vn 0.000000 1.000000 0.000000
vn -0.707106 0.707108 0.000000
vn -0.923879 0.382684 0.000000
vn -0.686117 0.686118 0.241836
vn 0.000000 0.707107 0.707107
vn 0.000000 0.382683 0.923880
vn 0.241836 0.686118 0.686118
vn 0.707106 0.707108 0.000000
vn 0.923879 0.382684 0.000000
vn 0.686118 0.686118 -0.241836
vn 0.000000 0.707106 -0.707107
vn 0.000000 0.382683 -0.923880
vn -0.241836 0.686118 -0.686118
vn 0.000000 1.000000 0.000000
vn 0.000000 1.000000 0.000000
vn 0.000000 1.000000 0.000000
vn 0.000000 1.000000 0.000000
vn 0.000000 1.000000 0.000000
vn 0.000000 1.000000 0.000000
vn 0.000000 1.000000 0.000000
vn 0.000001 -0.342020 0.939693
vn 0.000001 -0.342021 0.939692
vn 0.000001 0.053755 0.998554
vn 0.000001 -0.827465 0.561518
vn 0.000001 -0.827465 0.561517
vn 0.000001 -0.827465 0.561517
vn 0.000001 -0.827465 0.561517
vn 0.000001 -0.342021 0.939692
vn 0.000001 0.043619 0.999048
vn -0.000001 0.939693 0.342020
vn 0.000000 0.737277 0.675591
vn -1.000000 -0.000004 0.000008
vn -1.000000 0.000000 0.000003
vn -1.000000 0.000000 0.000002
vn -1.000000 0.000000 -0.000001
vn -1.000000 0.000000 -0.000001
vn -1.000000 0.000001 0.000000
vn -1.000000 0.000000 0.000000
vn -1.000000 0.000000 0.000000
vn -1.000000 0.000000 0.000000
vn -1.000000 0.000000 -0.000002
vn -1.000000 0.000000 -0.000009
vn -1.000000 0.000000 -0.000002
vn 1.000000 0.000000 -0.000008
vn 1.000000 -0.000002 -0.000003
vn 1.000000 -0.000003 -0.000005
vn 1.000000 -0.000002 0.000000
vn 1.000000 -0.000001 0.000001
vn 1.000000 -0.000002 0.000001
vn 1.000000 0.000000 0.000002
vn 1.000000 0.000003 0.000000
vn 1.000000 0.000000 0.000001
vn 1.000000 0.000004 0.000001
vn 1.000000 0.000004 -0.000001
vn 1.000000 0.000003 -0.000001
vn -0.707106 -0.640855 0.298842
vn -0.344220 -0.850920 0.396796
vn -0.344219 -0.850921 0.396796
vn -0.707105 -0.640856 0.298841
vn -0.344220 -0.321124 0.882265
vn -0.236018 -0.040400 0.970909
vn -0.707104 -0.241849 0.664464
vn -0.707104 -0.241848 0.664464
vn -0.704040 0.313128 0.637400
vn -0.734480 0.038212 0.677554
vn -0.704040 0.313128 0.637400
vn -0.707107 -0.241844 0.664463
vn -0.707106 -0.241845 0.664464
vn -0.734495 0.035484 0.677686
vn -0.725181 -0.569758 0.386637
vn -0.725181 -0.569758 0.386637
vn -0.725181 -0.569758 0.386637
vn -0.725181 -0.569758 0.386637
vn -0.707107 -0.241847 0.664462
vn -0.707107 -0.241847 0.664463
vn -0.734511 0.029600 0.677951
vn -0.707111 0.298839 0.640851
vn -0.707109 0.298838 0.640853
vn -0.734511 0.029599 0.677951
vn -0.707107 0.664464 0.241843
vn -0.707104 0.664465 0.241847
vn -0.707101 0.664467 0.241852
vn -0.707105 0.664465 0.241846
vn -0.319781 0.804939 -0.499814
vn -0.364563 0.790094 -0.492793
vn -0.722108 0.585630 -0.368236
vn -0.687819 0.616585 -0.383051
vn -0.344222 0.321118 -0.882267
vn -0.707108 0.241843 -0.664462
vn -0.368433 -0.045862 -0.928522
vn -0.734626 -0.034725 -0.677584
vn -0.369178 -0.688860 -0.623842
vn -0.707104 -0.664464 -0.241849
vn -0.344221 -0.882267 -0.321120
vn -0.734498 -0.504001 -0.454418
vn 0.707109 -0.640858 0.298827
vn 0.344221 -0.850922 0.396791
vn 0.344221 -0.850923 0.396790
vn 0.707106 -0.640859 0.298832
vn 0.707102 -0.241847 0.664467
vn 0.707104 -0.241849 0.664465
vn 0.707103 -0.241848 0.664466
vn 0.707103 -0.241848 0.664466
vn 0.232929 0.144020 0.961770
vn 0.704039 0.313128 0.637401
vn 0.707107 -0.241845 0.664463
vn 0.734497 0.035484 0.677683
vn 0.443070 0.049235 0.895134
vn 0.414259 -0.311293 0.855270
vn 0.725182 -0.569757 0.386637
vn 0.725181 -0.569758 0.386638
vn 0.725181 -0.569758 0.386638
vn 0.725182 -0.569757 0.386637
vn 0.707105 -0.241841 0.664466
vn 0.344222 -0.321117 0.882267
vn 0.368852 0.040544 0.928604
vn 0.734509 0.029602 0.677953
vn 0.707107 0.664463 0.241844
vn 0.344222 0.882266 0.321119
vn 0.734509 0.500316 0.458454
vn 0.368852 0.685290 0.627953
vn 0.320512 0.803784 -0.501203
vn 0.365442 0.790788 -0.491027
vn 0.685129 0.616650 -0.387739
vn 0.720034 0.589441 -0.366212
vn 0.344221 0.321119 -0.882267
vn 0.707107 0.241845 -0.664463
vn 0.368522 -0.045980 -0.928481
vn 0.734498 -0.035108 -0.677702
vn 0.369267 -0.688753 -0.623908
vn 0.734374 -0.503855 -0.454780
vn 0.707107 -0.664464 -0.241842
vn 0.344222 -0.882267 -0.321117
vt 0.498532 -0.000250
vt 0.989678 -0.000250
vt 0.821209 -0.000250
vt 0.832135 -0.000250
vt 0.829701 -0.025225
vt 0.821209 -0.025225
vt 0.827990 -0.025225
vt 0.832135 -0.025225
vt 0.490040 -0.025225
vt 0.498532 -0.025225
vt 0.993824 -0.025225
vt 0.989678 -0.025225
vt 0.829701 -0.474775
vt 0.821209 -0.474775
vt 0.498532 -0.474775
vt 0.821209 -0.499750
vt 0.498532 -0.499750
vt 0.827990 -0.474775
vt 0.989678 -0.499750
vt 0.989678 -0.474775
vt 0.832135 -0.499750
vt 0.832135 -0.474775
vt 0.490040 -0.474775
vt 0.498532 -0.474775
vt 0.821209 -0.474775
vt 0.498532 -0.499750
vt 0.821209 -0.499750
vt 0.993824 -0.474775
vt 0.989678 -0.499750
vt 0.832135 -0.499750
vt 0.989678 -0.474775
vt 0.832135 -0.474775
vt 0.989871 0.500000
vt 0.819871 1.000000
vt 0.819871 0.500000
vt 0.989871 1.000000
vt 0.503947 0.401268
vt 0.253947 0.306750
vt 0.910907 -0.000250
vt 0.832135 -0.025225
vt 0.989678 -0.000250
vt 0.659871 -0.000250
vt 0.821209 -0.025225
vt 0.498532 -0.000250
vt 0.910907 -0.000250
vt 0.989678 -0.025225
vt 0.832135 -0.000250
vt 0.659871 -0.000250
vt 0.498532 -0.025225
vt 0.821209 -0.000250
vt 0.378947 0.401268
vt 0.503947 0.495786
vt 0.253947 0.401268
vt 0.503947 0.306750
vt 0.253947 0.495786
vt 0.378947 0.495786
vt 0.378947 0.306750
vt 0.822574 0.984073
vt 0.975174 0.498988
vt 0.971720 0.498976
vt 0.981786 0.507424
vt 0.736284 0.992852
vt 0.981819 0.992875
vt 0.736252 0.507401
vt 0.975196 0.499058
vt 0.978651 0.499070
vt 0.989000 0.499058
vt 0.985553 0.499070
vt 0.828297 0.965275
vt 0.830725 0.915275
vt 0.824572 0.965275
vt 0.821016 0.915275
vt 0.821016 0.815275
vt 0.830725 0.815275
vt 0.821016 0.715275
vt 0.830725 0.715275
vt 0.821016 0.565275
vt 0.830725 0.565275
vt 0.828297 0.515275
vt 0.824572 0.513093
vt 0.826858 0.550000
vt 0.821104 0.550000
vt 0.829735 0.600000
vt 0.818227 0.600000
vt 0.818227 0.730000
vt 0.829735 0.730000
vt 0.818227 0.750000
vt 0.818227 0.900000
vt 0.829735 0.750000
vt 0.821104 0.950000
vt 0.826858 0.950000
vt 0.829735 0.900000
vt 0.153988 -0.127631
vt 0.156366 -0.139905
vt 0.156358 -0.056074
vt 0.153982 -0.068353
vt 0.822574 0.498965
vt 0.826029 0.498977
vt 0.827037 0.491835
vt 0.825013 0.491828
vt 0.828003 0.515885
vt 0.973693 0.515885
vt 0.829011 0.508743
vt 0.979587 0.508759
vt 0.977148 0.515897
vt 0.974701 0.508742
vt 0.824583 0.779926
vt 0.822228 0.546666
vt 0.824606 0.534392
vt 0.822205 0.792200
vt 0.977170 0.515966
vt 0.979609 0.508829
vt 0.980625 0.515978
vt 0.986513 0.508836
vt 0.987527 0.515978
vt 0.981633 0.508836
vt 0.826309 0.527911
vt 0.829756 0.527899
vt 0.827314 0.520761
vt 0.825295 0.520768
vt 0.989944 -0.467064
vt 0.989984 -0.053869
vt 0.992359 -0.066213
vt 0.992323 -0.454855
vt 0.823084 -1.500939
vt 0.825523 -1.508070
vt 0.826538 -1.500951
vt 0.827547 -1.508077
vt 0.986033 -1.500951
vt 0.987039 -1.508069
vt 0.989480 -1.500939
vt 0.985019 -1.508076
vt 0.320374 -0.065901
vt 0.318004 -0.137522
vt 0.317996 -0.053691
vt 0.320380 -0.125178
vt 0.160323 -1.015795
vt 0.159308 -1.008676
vt 0.156869 -1.015807
vt 0.161331 -1.008669
vt 0.826029 0.984085
vt 0.827037 0.991211
vt 0.977613 0.991227
vt 0.972728 0.991210
vt 0.971720 0.984084
vt 0.975174 0.984096
vt 0.674423 0.539190
vt 0.676775 0.797069
vt 0.674399 0.784724
vt 0.676799 0.551534
vt 0.977635 0.991297
vt 0.975196 0.984166
vt 0.978651 0.984178
vt 0.979659 0.991304
vt 0.986559 0.991297
vt 0.989000 0.984166
vt 0.984540 0.991304
vt 0.985553 0.984178
vt 0.828306 -0.464682
vt 0.828346 -0.051486
vt 0.825931 -0.452402
vt 0.825967 -0.063760
vt 0.823084 -1.015831
vt 0.825523 -1.008694
vt 0.826538 -1.015843
vt 0.827547 -1.008701
vt 0.986033 -1.015843
vt 0.985019 -1.008700
vt 0.987039 -1.008693
vt 0.989480 -1.015831
g ammo_sniper.ammo_sniper.smd.mesh_0
usemtl material_0
f 35/35/35 36/36/36 34/34/34
f 33/33/33 36/36/36 35/35/35
f 129/129/129 127/127/127 167/167/167
f 127/127/127 129/129/129 128/128/128
f 132/132/132 128/128/128 129/129/129
f 128/128/128 126/126/126 127/127/127
f 125/125/125 127/127/127 126/126/126
f 127/127/127 125/125/125 165/165/165
f 167/167/167 127/127/127 165/165/165
f 167/167/167 165/165/165 168/168/168
f 168/168/168 169/169/169 167/167/167
f 170/170/170 167/167/167 169/169/169
f 170/170/170 129/129/129 167/167/167
f 131/131/131 129/129/129 170/170/170
f 129/129/129 131/131/131 132/132/132
f 130/130/130 132/132/132 131/131/131
f 166/166/166 168/168/168 165/165/165
f 165/165/165 163/163/163 166/166/166
f 165/165/165 125/125/125 163/163/163
f 164/164/164 166/166/166 163/163/163
f 151/151/151 154/154/154 152/152/152
f 153/153/153 65/65/65 152/152/152
f 153/153/153 152/152/152 154/154/154
f 154/154/154 157/157/157 153/153/153
f 158/158/158 153/153/153 157/157/157
f 157/157/157 155/155/155 158/158/158
f 156/156/156 158/158/158 155/155/155
f 156/156/156 68/68/68 158/158/158
f 67/67/67 68/68/68 156/156/156
f 66/66/66 65/65/65 153/153/153
f 158/158/158 66/66/66 153/153/153
f 68/68/68 66/66/66 158/158/158
f 63/63/63 64/64/64 62/62/62
f 61/61/61 64/64/64 63/63/63
f 59/59/59 60/60/60 146/146/146
f 144/144/144 143/143/143 145/145/145
f 146/146/146 145/145/145 143/143/143
f 146/146/146 60/60/60 145/145/145
f 60/60/60 98/98/98 145/145/145
f 145/145/145 98/98/98 141/141/141
f 98/98/98 97/97/97 141/141/141
f 141/141/141 97/97/97 58/58/58
f 142/142/142 144/144/144 141/141/141
f 145/145/145 141/141/141 144/144/144
f 99/99/99 100/100/100 98/98/98
f 97/97/97 98/98/98 100/100/100
f 161/161/161 162/162/162 159/159/159
f 160/160/160 159/159/159 162/162/162
f 160/160/160 121/121/121 159/159/159
f 122/122/122 121/121/121 160/160/160
f 121/121/121 122/122/122 124/124/124
f 123/123/123 124/124/124 122/122/122
f 148/148/148 150/150/150 149/149/149
f 147/147/147 149/149/149 150/150/150
f 138/138/138 140/140/140 139/139/139
f 137/137/137 139/139/139 140/140/140
f 119/119/119 120/120/120 118/118/118
f 117/117/117 118/118/118 120/120/120
f 108/108/108 110/110/110 109/109/109
f 107/107/107 109/109/109 110/110/110
f 133/133/133 136/136/136 135/135/135
f 134/134/134 135/135/135 136/136/136
f 134/134/134 95/95/95 135/135/135
f 94/94/94 95/95/95 134/134/134
f 95/95/95 94/94/94 96/96/96
f 93/93/93 96/96/96 94/94/94
f 37/37/37 54/54/54 51/51/51
f 52/52/52 37/37/37 51/51/51
f 52/52/52 51/51/51 56/56/56
f 56/56/56 51/51/51 55/55/55
f 51/51/51 53/53/53 55/55/55
f 53/53/53 51/51/51 38/38/38
f 51/51/51 57/57/57 38/38/38
f 54/54/54 57/57/57 51/51/51
f 11/11/11 41/41/41 12/12/12
f 31/31/31 11/11/11 12/12/12
f 28/28/28 11/11/11 31/31/31
f 29/29/29 28/28/28 31/31/31
f 29/29/29 31/31/31 30/30/30
f 30/30/30 31/31/31 32/32/32
f 31/31/31 12/12/12 32/32/32
f 32/32/32 12/12/12 40/40/40
f 12/12/12 41/41/41 40/40/40
f 40/40/40 41/41/41 39/39/39
f 40/40/40 39/39/39 4/4/4
f 114/114/114 116/116/116 115/115/115
f 113/113/113 115/115/115 116/116/116
f 116/116/116 112/112/112 113/113/113
f 111/111/111 113/113/113 112/112/112
f 104/104/104 106/106/106 105/105/105
f 102/102/102 105/105/105 106/106/106
f 106/106/106 103/103/103 102/102/102
f 101/101/101 102/102/102 103/103/103
f 9/9/9 44/44/44 10/10/10
f 24/24/24 9/9/9 10/10/10
f 23/23/23 9/9/9 24/24/24
f 26/26/26 23/23/23 24/24/24
f 26/26/26 24/24/24 27/27/27
f 27/27/27 24/24/24 25/25/25
f 24/24/24 10/10/10 25/25/25
f 25/25/25 10/10/10 43/43/43
f 10/10/10 44/44/44 43/43/43
f 43/43/43 44/44/44 42/42/42
f 43/43/43 42/42/42 3/3/3
f 90/90/90 91/91/91 92/92/92
f 88/88/88 90/90/90 92/92/92
f 89/89/89 88/88/88 92/92/92
f 87/87/87 88/88/88 89/89/89
f 86/86/86 87/87/87 89/89/89
f 85/85/85 87/87/87 86/86/86
f 84/84/84 85/85/85 86/86/86
f 82/82/82 84/84/84 86/86/86
f 83/83/83 82/82/82 86/86/86
f 81/81/81 82/82/82 83/83/83
f 7/7/7 47/47/47 8/8/8
f 22/22/22 7/7/7 8/8/8
f 18/18/18 7/7/7 22/22/22
f 21/21/21 18/18/18 22/22/22
f 21/21/21 22/22/22 19/19/19
f 19/19/19 22/22/22 20/20/20
f 22/22/22 8/8/8 20/20/20
f 20/20/20 8/8/8 46/46/46
f 8/8/8 47/47/47 46/46/46
f 46/46/46 47/47/47 45/45/45
f 46/46/46 45/45/45 2/2/2
f 70/70/70 71/71/71 69/69/69
f 74/74/74 71/71/71 70/70/70
f 74/74/74 72/72/72 71/71/71
f 74/74/74 73/73/73 72/72/72
f 74/74/74 75/75/75 73/73/73
f 76/76/76 75/75/75 74/74/74
f 76/76/76 77/77/77 75/75/75
f 78/78/78 77/77/77 76/76/76
f 78/78/78 80/80/80 77/77/77
f 78/78/78 79/79/79 80/80/80
f 49/49/49 48/48/48 1/1/1
f 49/49/49 50/50/50 48/48/48
f 6/6/6 50/50/50 49/49/49
f 5/5/5 50/50/50 6/6/6
f 14/14/14 5/5/5 6/6/6
f 13/13/13 5/5/5 14/14/14
f 16/16/16 13/13/13 14/14/14
f 16/16/16 14/14/14 17/17/17
f 17/17/17 14/14/14 15/15/15
f 14/14/14 6/6/6 15/15/15
f 15/15/15 6/6/6 49/49/49
